<?xml version="1.0" encoding="UTF-8" standalone="no"?>
<!-- Generator: Adobe Illustrator 19.0.0, SVG Export Plug-In . SVG Version: 6.00 Build 0)  -->

<svg
   xmlns:dc="http://purl.org/dc/elements/1.1/"
   xmlns:cc="http://creativecommons.org/ns#"
   xmlns:rdf="http://www.w3.org/1999/02/22-rdf-syntax-ns#"
   xmlns:svg="http://www.w3.org/2000/svg"
   xmlns="http://www.w3.org/2000/svg"
   xmlns:sodipodi="http://sodipodi.sourceforge.net/DTD/sodipodi-0.dtd"
   xmlns:inkscape="http://www.inkscape.org/namespaces/inkscape"
   version="1.1"
   id="Capa_1"
   x="0px"
   y="0px"
   viewBox="0 0 535.04974 262.255"
   xml:space="preserve"
   sodipodi:docname="back.svg"
   width="535.04974"
   height="262.255"
   inkscape:version="0.92.5 (2060ec1f9f, 2020-04-08)"><metadata
   id="metadata52"><rdf:RDF><cc:Work
       rdf:about=""><dc:format>image/svg+xml</dc:format><dc:type
         rdf:resource="http://purl.org/dc/dcmitype/StillImage" /></cc:Work></rdf:RDF></metadata><defs
   id="defs50">
	
	
	
	
	
	
	
</defs><sodipodi:namedview
   pagecolor="#ffffff"
   bordercolor="#666666"
   borderopacity="1"
   objecttolerance="10"
   gridtolerance="10"
   guidetolerance="10"
   inkscape:pageopacity="0"
   inkscape:pageshadow="2"
   inkscape:window-width="2560"
   inkscape:window-height="1410"
   id="namedview48"
   showgrid="false"
   inkscape:zoom="1"
   inkscape:cx="486.99741"
   inkscape:cy="-69.980296"
   inkscape:window-x="0"
   inkscape:window-y="0"
   inkscape:window-maximized="1"
   inkscape:current-layer="Capa_1" />
<g
   id="g3"
   transform="translate(0,-61.994)">
	</g><g
   id="g5"
   transform="translate(0,-61.994)">
	</g><g
   id="g7"
   transform="translate(0,-61.994)">
	</g><g
   id="g9"
   transform="translate(0,-61.994)">
	</g><g
   id="g11"
   transform="translate(0,-61.994)">
	</g><g
   id="g13"
   transform="translate(0,-61.994)">
	</g>
<g
   id="g17"
   transform="translate(0,-61.994)">
</g>
<g
   id="g19"
   transform="translate(0,-61.994)">
</g>
<g
   id="g21"
   transform="translate(0,-61.994)">
</g>
<g
   id="g23"
   transform="translate(0,-61.994)">
</g>
<g
   id="g25"
   transform="translate(0,-61.994)">
</g>
<g
   id="g27"
   transform="translate(0,-61.994)">
</g>
<g
   id="g29"
   transform="translate(0,-61.994)">
</g>
<g
   id="g31"
   transform="translate(0,-61.994)">
</g>
<g
   id="g33"
   transform="translate(0,-61.994)">
</g>
<g
   id="g35"
   transform="translate(0,-61.994)">
</g>
<g
   id="g37"
   transform="translate(0,-61.994)">
</g>
<g
   id="g39"
   transform="translate(0,-61.994)">
</g>
<g
   id="g41"
   transform="translate(0,-61.994)">
</g>
<g
   id="g43"
   transform="translate(0,-61.994)">
</g>
<g
   id="g45"
   transform="translate(0,-61.994)">
</g>
<g
   id="g877"
   transform="translate(0,-61.994)"><path
     id="Arrow_Back"
     d="M 374.212,182.3 H 39.432 L 139.584,82.533 c 4.704,-4.704 4.704,-12.319 0,-17.011 -4.704,-4.704 -12.319,-4.704 -17.011,0 L 3.474,184.61 c -4.632,4.632 -4.632,12.379 0,17.011 l 119.1,119.1 c 4.704,4.704 12.319,4.704 17.011,0 4.704,-4.704 4.704,-12.319 0,-17.011 L 39.432,206.36 h 334.779 c 6.641,0 12.03,-5.39 12.03,-12.03 0,-6.64 -5.389,-12.03 -12.029,-12.03 z"
     inkscape:connector-curvature="0" /><rect
     ry="12.028685"
     y="182.30185"
     x="347.66467"
     height="24.057369"
     width="187.38507"
     id="rect68"
     style="fill:#000000;fill-opacity:1;fill-rule:evenodd;stroke-width:1.66625142" /></g></svg>