<?xml version="1.0" encoding="UTF-8" standalone="no"?>
<!-- Generator: Adobe Illustrator 18.0.0, SVG Export Plug-In . SVG Version: 6.00 Build 0)  -->

<svg
   xmlns:dc="http://purl.org/dc/elements/1.1/"
   xmlns:cc="http://creativecommons.org/ns#"
   xmlns:rdf="http://www.w3.org/1999/02/22-rdf-syntax-ns#"
   xmlns:svg="http://www.w3.org/2000/svg"
   xmlns="http://www.w3.org/2000/svg"
   xmlns:sodipodi="http://sodipodi.sourceforge.net/DTD/sodipodi-0.dtd"
   xmlns:inkscape="http://www.inkscape.org/namespaces/inkscape"
   version="1.1"
   id="Capa_1"
   x="0px"
   y="0px"
   viewBox="0 0 20 20"
   xml:space="preserve"
   sodipodi:docname="invalid.svg"
   inkscape:version="0.92.5 (2060ec1f9f, 2020-04-08)"
   width="20"
   height="20"><metadata
   id="metadata43"><rdf:RDF><cc:Work
       rdf:about=""><dc:format>image/svg+xml</dc:format><dc:type
         rdf:resource="http://purl.org/dc/dcmitype/StillImage" /></cc:Work></rdf:RDF></metadata><defs
   id="defs41">
	
	
</defs><sodipodi:namedview
   pagecolor="#ffffff"
   bordercolor="#666666"
   borderopacity="1"
   objecttolerance="10"
   gridtolerance="10"
   guidetolerance="10"
   inkscape:pageopacity="0"
   inkscape:pageshadow="2"
   inkscape:window-width="2560"
   inkscape:window-height="1410"
   id="namedview39"
   showgrid="false"
   inkscape:zoom="32.364063"
   inkscape:cx="9.0656202"
   inkscape:cy="9.4053726"
   inkscape:window-x="0"
   inkscape:window-y="0"
   inkscape:window-maximized="1"
   inkscape:current-layer="Capa_1" />
<path
   inkscape:connector-curvature="0"
   style="fill:#cd0000;fill-opacity:1;stroke-width:0.09537177"
   id="path4"
   d="m 17.080984,2.9190152 c -0.558594,-0.5586869 -1.464436,-0.5586869 -2.023124,0 l -5.057859,5.057843 -5.0578598,-5.057843 c -0.5585933,-0.5586869 -1.4644358,-0.5586869 -2.0231245,0 -0.5586887,0.558687 -0.5586887,1.4644312 0,2.0231181 L 7.9768759,9.9999765 2.9190167,15.05782 c -0.5586887,0.558686 -0.5586887,1.464431 0,2.023117 C 3.198361,17.360282 3.5644939,17.5 3.9305312,17.5 c 0.3661329,0 0.7322657,-0.139628 1.0115146,-0.419063 l 5.0578591,-5.057843 5.0578591,5.057843 C 15.337108,17.360282 15.703242,17.5 16.069279,17.5 c 0.366133,0 0.732265,-0.139628 1.011609,-0.419063 0.55869,-0.558686 0.55869,-1.464431 0,-2.023117 L 12.023125,9.9999765 17.080984,4.9421333 c 0.558688,-0.5586869 0.558688,-1.4644311 0,-2.0231181 z" />
<g
   id="g8"
   transform="translate(0,-310)">
</g>
<g
   id="g10"
   transform="translate(0,-310)">
</g>
<g
   id="g12"
   transform="translate(0,-310)">
</g>
<g
   id="g14"
   transform="translate(0,-310)">
</g>
<g
   id="g16"
   transform="translate(0,-310)">
</g>
<g
   id="g18"
   transform="translate(0,-310)">
</g>
<g
   id="g20"
   transform="translate(0,-310)">
</g>
<g
   id="g22"
   transform="translate(0,-310)">
</g>
<g
   id="g24"
   transform="translate(0,-310)">
</g>
<g
   id="g26"
   transform="translate(0,-310)">
</g>
<g
   id="g28"
   transform="translate(0,-310)">
</g>
<g
   id="g30"
   transform="translate(0,-310)">
</g>
<g
   id="g32"
   transform="translate(0,-310)">
</g>
<g
   id="g34"
   transform="translate(0,-310)">
</g>
<g
   id="g36"
   transform="translate(0,-310)">
</g>
</svg>